<svg xmlns="http://www.w3.org/2000/svg" width="409" height="406" viewBox="0 0 409 406">
<path fill="#112333" fill-rule="evenodd" d="M 292 225 L 310 230 L 328 239 L 334 245 L 337 252 L 336 258 L 345 253 L 346 246 L 342 239 L 336 234 L 328 230 L 314 226 L 300 224 Z M 34 217 L 36 241 L 54 276 L 84 291 L 66 272 L 131 307 L 74 294 L 25 256 L 48 292 L 117 327 L 85 324 L 43 302 L 47 311 L 131 373 L 202 386 L 265 381 L 326 355 L 302 357 L 356 327 L 305 335 L 258 331 L 254 372 L 218 355 L 186 373 L 180 357 L 148 349 L 180 354 L 180 331 L 123 316 L 180 323 L 180 306 L 124 292 L 180 299 L 180 281 L 124 268 L 113 275 L 152 287 L 98 278 L 60 255 Z M 158 368 L 159 367 L 160 368 L 159 369 Z M 300 358 L 301 357 L 303 358 L 302 359 Z M 305 341 L 290 352 L 277 359 L 264 359 L 263 358 L 296 342 L 302 340 Z M 166 336 L 144 344 L 120 347 L 141 360 L 158 367 L 157 368 L 143 365 L 121 356 L 108 348 L 98 339 L 99 338 L 101 339 L 133 339 L 151 336 L 159 333 Z M 152 288 L 153 287 L 156 288 L 155 289 Z M 64 272 L 65 271 L 66 272 L 65 273 Z M 105 214 L 90 215 L 70 221 L 61 226 L 57 230 L 55 237 L 66 231 L 88 225 L 94 225 Z M 377 214 L 374 213 L 376 227 L 369 242 L 344 263 L 300 281 L 268 285 L 304 271 L 317 261 L 322 250 L 293 266 L 255 275 L 258 298 L 273 299 L 258 303 L 258 323 L 319 327 L 346 321 L 367 310 L 380 293 L 354 304 L 387 273 L 393 256 L 377 270 L 378 257 L 335 303 L 318 315 L 306 315 L 340 291 L 374 253 L 382 234 Z M 353 305 L 354 304 L 355 305 L 354 306 Z M 272 298 L 273 297 L 275 298 L 274 299 Z M 336 280 L 317 295 L 298 307 L 282 315 L 270 313 L 300 298 L 323 282 L 326 283 L 334 279 Z M 375 270 L 376 269 L 377 270 L 376 271 Z M 311 208 L 330 216 L 344 225 L 354 237 L 355 244 L 362 238 L 362 233 L 359 227 L 347 217 L 332 211 L 319 208 Z M 46 185 L 46 188 L 48 190 L 77 190 L 80 187 L 77 183 L 48 183 Z M 45 139 L 42 141 L 42 146 L 47 148 L 50 145 L 49 140 Z M 81 129 L 81 133 L 83 135 L 124 135 L 127 132 L 125 128 L 82 128 Z M 70 101 L 67 103 L 67 108 L 72 110 L 74 109 L 75 104 L 72 101 Z M 146 102 L 146 105 L 148 107 L 193 107 L 195 105 L 195 102 L 193 100 L 148 100 Z M 313 72 L 280 60 L 249 69 L 224 113 L 111 221 L 161 212 L 108 227 L 74 255 L 103 271 L 133 251 L 177 238 L 226 212 L 250 190 L 262 169 L 264 152 L 254 132 L 269 147 L 270 167 L 253 198 L 214 229 L 157 253 L 177 253 L 194 270 L 204 270 L 195 258 L 205 249 L 226 269 L 238 270 L 223 255 L 227 243 L 264 222 L 299 174 L 303 111 L 320 87 L 308 83 Z M 164 226 L 154 231 L 152 229 L 160 225 Z M 186 216 L 178 222 L 175 223 L 173 222 L 175 219 L 182 215 Z M 160 211 L 161 210 L 163 211 L 162 212 Z M 162 210 L 163 209 L 165 210 L 164 211 Z M 165 209 L 166 208 L 167 209 L 166 210 Z M 214 202 L 207 207 L 205 206 L 211 201 Z M 199 195 L 201 197 L 197 200 L 196 203 L 193 204 L 192 203 L 193 200 Z M 164 192 L 162 195 L 148 202 L 145 201 L 161 191 Z M 228 188 L 229 190 L 223 195 L 221 193 Z M 205 189 L 207 187 L 209 188 L 208 190 Z M 208 187 L 209 186 L 210 187 L 209 188 Z M 190 187 L 185 192 L 181 191 L 185 187 L 188 186 Z M 209 186 L 210 185 L 211 186 L 210 187 Z M 191 184 L 194 182 L 196 183 L 193 186 Z M 218 182 L 213 187 L 210 185 L 215 181 Z M 180 172 L 181 174 L 174 179 L 173 177 Z M 207 167 L 203 171 L 199 173 L 198 172 L 204 166 Z M 243 165 L 244 167 L 237 173 L 236 172 L 238 169 Z M 248 132 L 249 131 L 252 132 L 251 133 Z M 246 131 L 247 130 L 249 131 L 248 132 Z M 284 77 L 287 77 L 291 81 L 291 84 L 286 88 L 280 84 L 281 79 Z"/>
<path fill="#3f7473" fill-rule="evenodd" d="M 191 279 L 189 281 L 189 362 L 218 345 L 224 347 L 249 362 L 249 282 L 246 279 Z M 163 226 L 153 229 L 154 230 Z M 185 216 L 178 218 L 174 222 L 180 220 Z M 213 202 L 209 203 L 206 206 Z M 200 197 L 199 196 L 195 199 L 193 203 L 196 202 L 196 200 Z M 163 192 L 159 193 L 156 196 L 146 201 L 157 197 Z M 228 189 L 222 193 L 224 194 Z M 189 187 L 185 188 L 182 191 L 187 190 Z M 101 183 L 99 185 L 99 189 L 103 191 L 106 189 L 107 186 L 106 184 Z M 217 182 L 215 182 L 206 189 L 208 189 L 211 185 L 213 186 Z M 180 173 L 176 175 L 174 178 L 178 176 Z M 206 167 L 201 169 L 199 172 Z M 98 158 L 100 162 L 140 162 L 142 160 L 141 156 L 100 156 Z M 99 161 L 100 160 L 101 161 L 100 162 Z M 98 160 L 99 159 L 100 160 L 99 161 Z M 149 128 L 147 131 L 148 134 L 153 135 L 155 133 L 155 130 L 153 128 Z M 89 72 L 87 74 L 87 77 L 89 79 L 93 79 L 95 76 L 94 73 Z"/>
<path fill="#bd943c" fill-rule="evenodd" d="M 20 179 L 18 180 L 17 185 L 22 187 L 24 186 L 25 183 L 23 180 Z M 70 155 L 68 156 L 67 161 L 71 163 L 75 159 L 73 156 Z M 110 101 L 109 104 L 111 107 L 114 108 L 117 106 L 117 102 L 115 100 Z M 309 83 L 317 86 L 322 86 L 353 73 L 314 73 Z"/>
<path fill="#ffffff" fill-rule="evenodd" d="M 304 341 L 296 343 L 271 356 L 264 358 L 277 358 L 290 351 Z M 165 336 L 159 334 L 151 337 L 133 340 L 101 340 L 99 339 L 108 347 L 121 355 L 140 363 L 157 367 L 141 361 L 119 347 L 124 345 L 144 343 Z M 335 280 L 326 284 L 323 283 L 300 299 L 271 313 L 282 314 L 298 306 L 317 294 Z M 282 79 L 281 84 L 286 87 L 290 84 L 290 81 L 287 78 Z"/>
</svg>